<?xml version="1.0" encoding="UTF-8" standalone="no"?>
<svg
   width="154.97171"
   height="157.3521"
   xml:space="preserve"
   version="1.1"
   id="svg9"
   sodipodi:docname="test.svg"
   inkscape:version="1.3 (0e150ed6c4, 2023-07-21)"
   xmlns:inkscape="http://www.inkscape.org/namespaces/inkscape"
   xmlns:sodipodi="http://sodipodi.sourceforge.net/DTD/sodipodi-0.dtd"
   xmlns="http://www.w3.org/2000/svg"
   xmlns:svg="http://www.w3.org/2000/svg"><defs
     id="defs9"><filter
       inkscape:label="Inset"
       inkscape:menu="Shadows and Glows"
       inkscape:menu-tooltip="Shadowy outer bevel"
       style="color-interpolation-filters:sRGB"
       id="filter34"
       x="-0.16456906"
       y="-0.1612765"
       width="1.3291381"
       height="1.322553"><feMorphology
         result="result1"
         in="SourceAlpha"
         operator="dilate"
         radius="3.6"
         id="feMorphology33" /><feGaussianBlur
         stdDeviation="3.6"
         in="result1"
         result="result0"
         id="feGaussianBlur33" /><feDiffuseLighting
         surfaceScale="-5"
         id="feDiffuseLighting33"><feDistantLight
           elevation="45"
           azimuth="225"
           id="feDistantLight33" /></feDiffuseLighting><feComposite
         in2="result0"
         operator="in"
         result="result91"
         id="feComposite33" /><feComposite
         in="SourceGraphic"
         in2="result91"
         id="feComposite34" /></filter></defs><sodipodi:namedview
     id="namedview9"
     pagecolor="#ffffff"
     bordercolor="#666666"
     borderopacity="1.0"
     inkscape:showpageshadow="2"
     inkscape:pageopacity="0.0"
     inkscape:pagecheckerboard="0"
     inkscape:deskcolor="#d1d1d1"
     inkscape:zoom="2.2458333"
     inkscape:cx="56.7718"
     inkscape:cy="71.020408"
     inkscape:window-width="1366"
     inkscape:window-height="745"
     inkscape:window-x="-8"
     inkscape:window-y="-8"
     inkscape:window-maximized="1"
     inkscape:current-layer="svg9" /><path
     d="m 62.708,42.923 c -0.382,0.816 -0.664,1.829 -0.664,1.829 0.085,0.63 0.344,0.988 0.525,1.369 1.224,2.58 2.214,5.239 2.755,8.053 0.392,2.04 0.552,4.091 0.05,6.128 -0.666,2.702 -1.756,5.225 -3.401,7.486 -1.82,2.501 -4.155,4.369 -6.986,5.608 -2.187,0.957 -4.49,1.47 -6.867,1.627 -3.221,0.212 -6.378,-0.185 -9.485,-1.048 -5.04,-1.401 -9.117,-4.178 -12.137,-8.465 -0.63,-0.894 -1.252,-1.8 -1.794,-2.748 C 21.203,56.639 19.564,50.062 19.947,43 20.236,37.654 21.92,32.806 25.09,28.482 a 32.206,32.206 0 0 1 3.702,-4.193 c 0.539,-0.407 5.5,-4.126 10.892,-7.486 0.836,-0.413 1.682,-0.81 2.544,-1.181 0.402,-0.173 0.795,-0.316 1.233,-0.562 -0.249,0.035 16.699,-3.477 24.271,1.568 l 0.057,0.041 5.727,4.911 0.138,0.146 2.598,3.073 a 47.404,47.404 0 0 1 1.924,2.717 50.895,50.895 0 0 1 4.565,8.709 c 0.068,0.167 0.055,0.458 0.45,0.341 -0.062,-1.388 -0.214,-2.77 -0.524,-4.136 A 26.068,26.068 0 0 0 81.725,29.266 L 81.715,29.217 81.7,29.193 C 80.391,25.642 78.344,22.499 75.629,19.734 A 30.564,30.564 0 0 0 70.826,15.749 L 70.824,15.747 C 65.35,11.042 53.049,8.727 53.049,8.727 52.005,8.343 51.089,8.319 50.183,8.225 49.977,8.204 49.772,8.196 49.567,8.179 L 49.496,8.168 49.443,8.17 a 33.296,33.296 0 0 0 -7.516,0.237 l -0.052,0.002 -0.056,0.015 a 35.17,35.17 0 0 0 -6.5,1.611 c -0.271,0.096 -0.527,0.213 -0.794,0.314 l -0.167,0.044 -0.108,0.065 c -4.137,1.595 -7.82,3.809 -11.062,6.612 l -0.027,0.016 -0.02,0.022 a 41.785,41.785 0 0 0 -5.99,6.446 c -0.137,0.181 -0.256,0.369 -0.389,0.552 l -0.079,0.086 -0.06,0.11 c -2.148,2.976 -3.862,6.131 -5.131,9.463 l -0.04,0.074 -0.022,0.099 a 41.513,41.513 0 0 0 -2.395,9.98 c -0.043,0.385 -0.068,0.77 -0.1,1.156 l -0.011,0.048 0.003,0.039 c -0.17,2.163 -0.156,4.333 0.107,6.493 a 32.96,32.96 0 0 0 0.751,4.025 l 0.002,0.021 0.011,0.025 c 0.891,3.537 2.358,6.867 4.389,9.981 a 40.663,40.663 0 0 0 6.335,7.539 l 0.067,0.08 0.114,0.083 a 40.909,40.909 0 0 0 7.756,5.613 l 0.179,0.129 0.137,0.048 a 45.578,45.578 0 0 0 3.891,1.932 34.077,34.077 0 0 0 8.965,2.516 l 0.018,0.006 0.025,-0.001 c 1.656,0.223 3.336,0.329 5.043,0.297 2.5,-0.047 4.982,-0.283 7.436,-0.767 0.198,-0.039 0.394,-0.086 0.592,-0.128 l 0.013,-10e-4 0.01,-0.005 c 3.671,-0.783 7.157,-2.057 10.353,-4.075 a 25.792,25.792 0 0 0 1.892,-1.325 l 0.021,-0.009 0.008,-0.015 c 3.635,-2.783 6.257,-6.372 7.747,-10.852 1.02,-3.067 1.439,-6.217 1.213,-9.447 a 17.13,17.13 0 0 0 -1.178,-5.2 L 74.826,52.086 74.787,52.03 C 73.987,50.065 72.813,48.267 71.228,46.655 71.034,46.458 70.821,46.288 70.621,46.1 L 70.551,46 70.423,45.92 c -6.047,-5.872 -7.715,-2.997 -7.715,-2.997 z m -44.676,2.869 0.001,-0.005 v 0.008 z"
     style="fill:#bf4851;filter:url(#filter34)"
     transform="matrix(1.56765,0,0,1.56765,5.3693069,6.5541927)"
     id="path1" /><path
     d="m 103.5089,73.660587 c 0.38721,0 0.46402,-0.02352 0.51576,0.0031 6.56218,3.444127 11.51125,8.354007 14.00538,15.474273 1.41716,4.047672 1.5269,8.217621 0.91394,12.40638 -0.591,4.03357 -1.87648,7.87274 -3.70279,11.51439 -4.53521,9.03594 -11.77462,14.82684 -21.415664,17.68623 -4.983559,1.47829 -10.092531,1.93605 -15.270479,1.78712 -8.620507,-0.24769 -16.841264,-2.22293 -24.692055,-5.74857 -5.204598,-2.3358 -9.710024,-5.67646 -13.583687,-9.84328 C 32.408134,108.47182 27.908979,98.402806 26.400899,86.995017 24.507178,72.666696 28.151964,59.633254 35.958861,47.665814 41.627484,38.97633 49.059713,32.197812 58.420151,27.620273 c 6.04329,-2.95502 12.429897,-4.666894 19.1316,-5.289251 8.22546,-0.763445 16.316101,-0.126979 24.248409,2.191575 8.45434,2.470616 15.93203,6.656242 22.13365,12.972304 5.50716,5.609052 9.2852,12.197885 11.03313,19.902884 0.48597,2.139843 0.72425,4.307903 0.82144,6.483801 -0.61922,0.181847 -0.59727,-0.272771 -0.70544,-0.534569 a 79.564508,79.564508 0 0 0 -7.15632,-13.652664 c -3.91442,-5.953934 -8.53742,-11.258862 -14.25308,-15.565196 -6.26903,-4.72333 -13.27016,-7.712839 -21.072349,-8.672241 -5.632566,-0.691333 -11.235347,-0.321368 -16.780125,0.901399 -7.225299,1.592733 -14.025765,4.30947 -20.473509,7.897821 -6.37093,3.546024 -11.371733,8.57191 -15.3034,14.673204 -4.304767,6.679757 -6.918039,13.988141 -7.9715,21.862447 -1.566082,11.716616 0.332342,22.832822 5.844199,33.298453 2.740252,5.20146 6.164,9.89971 10.639641,13.77181 5.947664,5.14659 12.829647,8.4073 20.503294,9.97809 7.038749,1.44067 14.053982,1.30585 20.978292,-0.74307 5.845767,-1.72912 10.959437,-4.67944 15.107447,-9.19897 4.25773,-4.63867 6.77695,-10.13642 7.75359,-16.30983 1.6476,-10.407627 -1.41088,-19.376153 -8.56877,-27.018446 -0.23515,-0.255527 -0.46089,-0.511054 -0.82145,-0.909237 z"
     style="fill:#9e2f30;stroke-width:1.56765"
     id="path2" /><path
     d="m 105.12201,72.268513 c 0.39348,0.09563 0.80891,0.142657 1.17887,0.296286 4.03827,1.678953 7.65641,4.002211 10.729,7.129672 4.565,4.644947 7.02935,10.236755 7.48397,16.725258 0.35428,5.063511 -0.30256,10.001611 -1.90156,14.809591 -2.73085,8.20821 -7.86961,14.52584 -15.15762,19.12533 -5.29081,3.33909 -11.084848,5.39114 -17.195548,6.59667 -3.847013,0.75874 -7.736353,1.12871 -11.657045,1.20238 -7.667376,0.14266 -15.003978,-1.38266 -22.02705,-4.4192 -12.036417,-5.20146 -21.7872,-13.16513 -28.968605,-24.17943 -4.380014,-6.71581 -7.109293,-14.061822 -8.0781,-22.028619 -0.490675,-4.035131 -0.454619,-8.093777 0,-12.127341 1.329367,-11.791863 5.580834,-22.455018 12.72148,-31.925192 7.414984,-9.833868 16.802072,-17.08425 28.4842,-21.193061 7.549802,-2.655599 15.320643,-3.660462 23.306253,-2.835878 1.420291,0.147359 2.856258,0.184982 4.492885,0.78696 -1.106761,0.167738 -1.953292,0.08936 -2.791985,0.07681 -8.112589,-0.116006 -16.002571,1.142817 -23.610377,3.977128 -13.099283,4.878527 -22.872013,13.604067 -29.586258,25.812925 -3.533483,6.425797 -6.049562,13.227831 -7.190811,20.482915 -1.928209,12.265294 -0.437374,24.066563 5.044698,35.286238 3.198006,6.54493 7.835115,11.88905 13.582119,16.30512 8.043613,6.18124 17.029382,10.24303 27.078019,11.77148 10.037663,1.5269 19.747687,0.20223 28.905898,-4.17622 10.279077,-4.91615 17.071707,-12.92683 20.127057,-23.96152 1.43911,-5.1952 1.50181,-10.440552 0.0423,-15.659258 -1.87804,-6.712678 -5.91788,-11.832623 -11.67743,-15.654553 -0.91394,-0.606681 -1.88588,-1.122438 -2.81393,-1.708739 -0.19909,-0.125412 -0.3198,-0.373101 -0.47656,-0.564354 z"
     style="fill:#9e2f30;stroke-width:1.56765"
     id="path3" /><path
     d="m 73.665547,29.72406 c -0.06898,0.166171 -0.09406,0.423266 -0.214768,0.484404 -0.612951,0.307259 -1.249417,0.564354 -1.879612,0.835557 -6.529263,2.8155 -12.618015,6.364659 -18.09852,10.918683 -3.287362,2.732413 -6.236111,5.787763 -8.767866,9.241296 -4.972586,6.778519 -7.610941,14.378486 -8.063992,22.759143 -0.598842,11.070744 1.968969,21.381178 7.457311,30.979897 0.849667,1.48613 1.824745,2.90642 2.812364,4.3079 4.735871,6.71895 11.125612,11.07388 19.026568,13.27016 4.870689,1.35288 9.818192,1.97524 14.869161,1.6429 3.726304,-0.24613 7.335034,-1.04876 10.765052,-2.55057 4.43645,-1.94232 8.09848,-4.87069 10.951605,-8.79138 2.57878,-3.54602 4.28752,-7.5012 5.33158,-11.73543 0.78696,-3.1933 0.53613,-6.40855 -0.0784,-9.606556 -0.8481,-4.409799 -2.40008,-8.579748 -4.31888,-12.624285 -0.28374,-0.597275 -0.68977,-1.158494 -0.82302,-2.146113 0.40446,0.338612 0.61452,0.465592 0.75875,0.644304 3.62754,4.494453 6.32076,9.449794 7.56077,15.145067 1.29331,5.944528 0.59728,11.653913 -2.29347,16.974513 -4.98042,9.16762 -12.618014,14.87386 -22.923745,16.80364 -8.633049,1.61625 -16.944729,0.24925 -24.982071,-3.06476 -1.769876,-0.73052 -3.478615,-1.63349 -5.152865,-2.56938 -3.644789,-2.03637 -6.67976,-4.76722 -9.170756,-8.13766 C 40.331037,104.25641 36.167359,95.1515 34.392779,85.037023 32.828264,76.129635 33.439648,67.386851 37.038972,58.98268 42.020964,47.353852 50.331077,38.97633 61.821951,33.729406 c 3.44256,-1.572353 7.021505,-2.757497 10.663155,-3.767063 0.393481,-0.109736 0.812043,-0.12698 1.218065,-0.186551 a 1.4798616,1.4798616 0 0 0 -0.03762,-0.05173 z"
     style="fill:#9e2f30;stroke-width:1.56765"
     id="path4" /><path
     d="m 53.171658,66.841309 c 0.09406,-4.508561 1.293312,-9.076693 3.668301,-13.320322 2.420452,-4.322011 5.765817,-7.777112 9.650454,-10.222646 -0.902967,0.26023 -1.7009,0.112871 -2.697926,-0.509486 -2.279363,-1.423426 -3.679274,-0.957834 -4.988262,1.374829 -2.903288,5.171677 -5.79717,10.349625 -8.692619,15.526006 -1.624086,2.90172 -1.352882,4.036699 1.559811,5.572995 0.802637,0.418563 1.272932,0.88102 1.500241,1.578624 z"
     style="fill:#ffdf74;stroke-width:1.56765"
     id="path5" /><path
     d="M 65.755185,92.79689 C 51.853265,85.015075 47.598663,68.319603 55.123383,54.877004 62.648103,41.434405 79.103725,36.333272 93.005645,44.115087 106.90756,51.896902 111.46786,68.763248 103.94314,82.207414 96.418419,95.651581 79.657105,100.58027 65.755185,92.79689 Z"
     style="opacity:0.2;stroke-width:1.56765"
     id="path6" /><path
     d="M 67.322835,91.22924 C 53.420915,83.447425 49.166313,66.751953 56.691033,53.309354 64.215753,39.866755 80.671375,34.765622 94.573295,42.547437 108.47521,50.329252 113.03551,67.195598 105.51079,80.639764 97.986069,94.083931 81.224755,99.012622 67.322835,91.22924 Z"
     style="fill:#faec94;stroke-width:1.56765"
     id="path7" /><path
     d="m 94.019914,92.905058 0.05644,0.192821 c 0.655278,2.230766 1.221199,4.494452 1.997186,6.682892 0.721119,2.037949 2.592893,2.801389 4.49759,3.107079 1.80123,0.28845 2.57721,-1.18828 3.32812,-2.55997 1.87177,-3.417476 3.79528,-6.805168 5.69841,-10.203833 4.08999,-7.306817 8.1847,-14.610498 12.26686,-21.922018 0.93745,-1.678953 0.83399,-3.078864 -0.41543,-4.079025 -1.63036,-1.305853 -3.38142,-2.182169 -5.61532,-1.439103 -1.96584,0.65371 -3.97399,1.164764 -5.86772,1.685224 -5.06507,2.425155 -7.00896,7.797491 -9.987494,13.118095 -2.987941,5.336281 -6.549642,9.818192 -5.958638,15.417838 z"
     style="fill:#ffdf74;stroke-width:1.56765"
     id="path8" /><path
     d="m 104.48711,52.804571 a 0.87318105,0.87318105 0 0 1 0.7995,-0.44678 c 3.49586,0.148926 6.07308,1.283905 7.65797,3.370447 2.52549,3.328121 1.51906,7.800627 1.47516,7.988745 a 0.87318105,0.87318105 0 1 1 -1.7009,-0.395048 c 0.0157,-0.06898 0.85124,-3.890908 -1.1726,-6.546507 -1.25569,-1.6476 -3.38769,-2.547431 -6.33487,-2.672843 a 0.87318105,0.87318105 0 0 1 -0.72426,-1.298014 z M 81.246702,94.319078 a 0.8747487,0.8747487 0 0 0 0.03762,0.91394 c 1.954859,2.90172 4.268711,4.505426 6.87728,4.765656 4.157408,0.413856 7.443203,-2.782579 7.581156,-2.918964 a 0.87318105,0.87318105 0 1 0 -1.225902,-1.241579 c -0.05016,0.05016 -2.871935,2.760632 -6.193786,2.423587 -2.061459,-0.208497 -3.942639,-1.555109 -5.590239,-4.00221 a 0.87318105,0.87318105 0 0 0 -1.486133,0.05957 z"
     style="fill:#4d4d4d;stroke-width:1.56765"
     id="path9" /></svg>
